<?xml version="1.0" standalone="no"?>
<!DOCTYPE svg PUBLIC "-//W3C//DTD SVG 20010904//EN"
 "http://www.w3.org/TR/2001/REC-SVG-20010904/DTD/svg10.dtd">
<svg version="1.0" xmlns="http://www.w3.org/2000/svg"
 width="485.000000pt" height="604.000000pt" viewBox="0 0 485.000000 604.000000"
 preserveAspectRatio="xMidYMid meet">

<g transform="translate(0.000000,604.000000) scale(0.100000,-0.100000)"
fill="#000000" stroke="none">
<path d="M2072 5909 c-95 -9 -141 -22 -194 -56 -47 -29 -97 -48 -168 -63 -57
-13 -215 -85 -284 -129 -72 -47 -225 -202 -301 -305 -40 -56 -81 -109 -89
-118 -9 -10 -16 -22 -16 -27 0 -5 -6 -14 -14 -20 -33 -28 -165 -338 -187 -439
-20 -93 -18 -306 5 -372 25 -77 119 -263 162 -323 20 -28 51 -81 69 -119 28
-57 33 -81 33 -136 0 -118 -50 -235 -93 -218 -8 3 -15 2 -15 -2 0 -4 -10 -12
-22 -17 -13 -6 -24 -19 -26 -30 -2 -12 0 -16 5 -9 4 6 17 13 28 16 11 3 27 9
36 12 20 9 32 -26 15 -45 -8 -9 -7 -11 6 -6 21 7 15 -12 -19 -63 -12 -19 -18
-37 -13 -40 11 -7 -17 -110 -30 -110 -4 0 -13 -13 -19 -30 -13 -38 -1 -39 22
-2 19 27 19 15 2 -33 -6 -17 -5 -17 5 -5 9 12 11 9 7 -18 -2 -19 2 -37 10 -44
10 -8 10 -14 2 -24 -6 -7 -7 -19 -3 -25 5 -9 9 -7 14 6 3 10 7 -8 8 -41 1 -41
-2 -54 -8 -44 -8 12 -10 9 -10 -12 0 -15 4 -29 9 -32 12 -8 12 -84 0 -91 -18
-12 -10 -26 10 -16 15 8 20 6 29 -14 7 -14 16 -25 22 -25 17 0 43 -63 47 -120
4 -44 1 -66 -16 -98 -11 -22 -28 -45 -37 -50 -10 -6 -15 -16 -11 -26 4 -9 2
-15 -4 -13 -6 1 -26 -20 -45 -47 -35 -50 -38 -72 -6 -43 23 21 32 21 32 0 0
-9 -3 -13 -6 -10 -11 10 -41 -11 -47 -33 -7 -27 7 -26 26 2 8 13 18 20 22 16
4 -4 -6 -21 -23 -39 -17 -18 -40 -50 -53 -72 l-22 -40 32 19 c17 10 31 25 31
34 0 8 5 22 11 30 9 13 10 12 5 -2 -7 -25 -4 -23 38 16 34 33 48 55 26 41 -5
-3 -10 -1 -10 4 0 6 5 11 11 11 16 0 49 40 49 59 1 13 2 13 11 -2 6 -10 8 -25
5 -33 -12 -30 14 -12 35 25 12 22 27 39 32 38 6 -1 14 9 18 23 6 18 7 11 4
-22 -5 -58 -35 -128 -54 -128 -11 0 -11 -3 -1 -15 10 -12 9 -15 -4 -15 -13 0
-16 -5 -11 -20 5 -14 2 -20 -9 -20 -9 0 -16 -4 -16 -10 0 -18 29 -10 35 10 3
11 11 20 16 20 5 0 17 16 26 35 9 19 20 32 25 29 4 -3 8 2 8 10 0 9 5 16 10
16 16 0 11 -33 -10 -60 -11 -14 -20 -34 -20 -45 0 -11 -6 -43 -14 -72 -10 -38
-11 -53 -2 -57 7 -3 5 -10 -6 -19 -10 -8 -15 -17 -11 -20 3 -4 1 -13 -5 -20
-11 -13 -7 -27 8 -27 9 0 80 106 80 120 0 5 5 10 11 10 6 0 9 6 6 13 -3 7 1
20 8 30 10 14 13 3 18 -66 4 -45 7 -106 7 -135 0 -54 16 -88 64 -136 17 -17
19 -17 13 -2 -4 10 -7 22 -7 27 0 6 -4 7 -10 4 -5 -3 -10 -2 -10 4 0 5 5 13
10 16 6 3 10 15 10 26 0 11 7 19 16 19 8 0 12 5 9 10 -3 6 5 14 19 20 14 5 31
20 38 33 20 37 96 117 112 117 8 0 17 8 20 17 6 15 8 15 16 3 8 -12 13 -13 30
-2 29 18 37 15 48 -18 11 -30 18 -32 90 -16 18 4 21 2 13 -12 -4 -9 -11 -24
-15 -32 -3 -8 -4 -1 -1 15 4 20 2 25 -4 15 -9 -16 -23 -118 -22 -158 1 -13 -4
-32 -9 -43 -17 -30 -2 -22 44 24 24 23 61 53 84 67 22 14 56 48 76 75 54 74
170 213 179 214 4 1 3 -8 -3 -18 -18 -34 -11 -33 23 2 24 26 45 37 87 45 30 7
91 19 135 28 91 18 181 66 258 139 27 25 50 45 53 45 14 0 -2 -27 -46 -75 -27
-30 -50 -57 -50 -60 0 -12 14 -1 65 50 48 49 85 69 85 47 0 -5 -23 -29 -50
-55 -28 -26 -48 -47 -45 -47 12 0 114 73 110 79 -2 4 0 13 6 21 7 12 9 9 9
-10 0 -20 2 -22 10 -10 5 8 10 26 10 40 0 15 6 32 13 39 10 11 8 11 -10 2 -14
-7 -24 -8 -28 -1 -6 9 21 59 39 72 16 11 28 -2 23 -23 -3 -11 -1 -17 4 -13 17
10 9 46 -11 51 -11 3 -20 9 -20 13 0 8 23 130 40 214 7 33 7 53 0 61 -13 15
-2 97 14 107 8 5 7 8 -1 8 -7 0 -13 4 -13 10 0 5 13 7 29 4 21 -4 30 -2 35 11
9 24 1 29 -17 10 -21 -20 -26 -19 -20 5 3 11 12 20 19 20 8 0 14 4 14 9 0 5
14 23 31 40 17 18 29 38 26 46 -3 7 -1 15 6 18 6 2 12 14 12 28 0 13 6 24 13
25 6 1 17 2 22 3 6 0 10 6 10 12 0 13 55 85 90 117 45 40 157 103 212 118 60
16 126 18 181 5 l37 -9 2 42 c6 105 3 202 -6 208 -6 4 -5 27 4 62 9 39 10 59
2 68 -6 8 -8 61 -5 147 2 76 -1 155 -6 180 -6 26 -15 98 -20 161 -21 244 -109
447 -220 505 -17 8 -49 38 -71 66 -24 31 -59 61 -89 76 -44 21 -50 28 -56 66
-4 22 -16 60 -25 83 -10 23 -18 62 -18 86 0 58 -54 175 -94 206 -10 7 -18 19
-18 26 0 8 -6 19 -14 25 -8 7 -24 30 -36 53 -52 101 -99 136 -245 186 -201 69
-386 96 -543 81z m-194 -650 c-4 -18 46 -18 59 0 11 14 12 14 13 -2 0 -14 4
-16 19 -7 25 13 34 13 26 0 -3 -5 3 -10 15 -10 12 0 18 -4 15 -10 -4 -6 8 -15
25 -21 17 -6 29 -14 26 -17 -10 -9 31 -32 46 -27 8 3 25 -3 37 -14 13 -12 46
-24 72 -27 30 -4 49 -12 49 -19 0 -8 -8 -11 -20 -8 -11 3 -20 0 -20 -6 0 -6
11 -11 25 -11 22 0 25 -4 25 -33 0 -18 -6 -39 -12 -46 -11 -10 -10 -11 5 -6
14 6 17 2 17 -21 0 -16 4 -36 10 -44 6 -9 5 -17 -2 -21 -6 -4 -7 -12 -2 -20 5
-8 7 -23 6 -34 -2 -15 -1 -16 6 -7 13 19 22 -20 10 -42 -8 -14 -13 -14 -42 -2
-39 16 -143 1 -221 -34 -11 -5 -37 -14 -58 -20 -21 -7 -48 -22 -60 -34 -12
-12 -30 -25 -40 -29 -18 -7 -20 -18 -7 -57 5 -16 8 -19 9 -8 1 9 5 19 10 23
10 6 7 -91 -4 -135 -9 -38 10 -81 32 -74 15 5 15 4 4 -4 -13 -9 -13 -15 -1
-39 11 -22 14 -24 17 -10 5 20 19 23 26 5 3 -10 8 -9 21 2 14 14 13 18 -9 44
-27 31 -33 66 -12 66 7 0 13 -9 14 -21 1 -12 10 -27 20 -35 26 -21 99 -54 120
-55 13 -1 11 -3 -7 -9 -26 -8 -23 -10 20 -15 34 -4 100 13 100 26 0 6 -7 9
-15 5 -21 -8 -19 11 3 23 15 9 14 11 -8 11 -17 1 -10 6 25 17 28 8 52 18 55
22 3 3 14 11 25 17 11 6 26 22 32 36 7 14 24 33 38 42 42 28 13 85 -43 86 -13
0 -35 6 -50 14 -23 12 -41 12 -112 1 -91 -13 -107 -12 -107 10 0 19 112 50
167 46 51 -3 61 -8 41 -21 -8 -4 16 -7 58 -5 56 2 74 0 78 -12 4 -9 17 -14 37
-12 58 4 116 -19 116 -47 0 -7 5 -25 12 -41 6 -15 10 -32 9 -36 -2 -11 20 -78
31 -93 15 -21 37 -145 31 -180 -4 -25 -14 -38 -36 -49 -16 -8 -36 -15 -44 -15
-7 0 -13 -6 -13 -12 -1 -21 -37 -58 -57 -58 -10 0 -24 -5 -29 -10 -6 -6 -40
-11 -77 -11 -50 -1 -75 4 -99 18 -18 11 -74 46 -125 77 -50 31 -94 56 -97 56
-12 0 -6 -20 7 -20 20 -1 62 -38 62 -56 0 -11 11 -20 28 -25 51 -14 115 -71
119 -105 4 -35 16 -31 -152 -54 -36 -5 -101 -21 -144 -35 -89 -28 -127 -32
-81 -9 38 20 55 42 55 70 0 15 12 30 36 45 51 31 117 139 86 139 -5 0 -16 -18
-25 -40 -11 -29 -22 -41 -44 -46 -60 -14 -101 -43 -108 -73 -9 -42 -53 -50
-118 -22 -27 12 -62 21 -77 21 -20 0 -33 7 -41 22 -10 19 -8 25 20 47 27 23
31 33 33 81 1 30 5 60 10 67 13 17 5 260 -9 274 -6 6 -9 17 -7 23 3 7 -7 18
-20 26 -14 7 -28 20 -31 29 -3 9 -23 24 -43 34 -46 20 -56 21 -46 5 6 -10 5
-10 -7 -1 -8 6 -25 13 -39 15 -35 4 -42 53 -9 61 17 5 20 9 12 19 -13 15 14
51 60 81 32 21 35 52 7 69 -26 17 -25 34 2 49 l22 12 -24 10 c-24 9 -24 9 -5
17 19 8 19 9 -2 9 -30 1 -29 19 2 33 14 6 25 19 25 30 0 24 32 98 43 98 5 0
29 14 53 31 31 21 54 30 70 26 18 -3 24 0 24 13 0 9 3 20 7 23 10 11 23 8 21
-4z m1467 -389 c3 -11 10 -20 14 -20 4 0 13 -12 19 -27 11 -24 7 -23 -24 12
-20 22 -40 48 -46 58 -8 16 -7 17 11 8 11 -6 23 -20 26 -31z m-1725 10 c0 -5
-4 -10 -10 -10 -5 0 -10 5 -10 10 0 6 5 10 10 10 6 0 10 -4 10 -10z m588 -247
c-10 -2 -26 -2 -35 0 -10 3 -2 5 17 5 19 0 27 -2 18 -5z m72 -67 c0 -8 -4 -18
-10 -21 -5 -3 -10 3 -10 14 0 12 5 21 10 21 6 0 10 -6 10 -14z m-132 -61 c-4
-4 -56 -8 -82 -6 -20 1 -20 1 0 21 10 10 25 26 33 35 12 15 15 13 33 -15 10
-18 18 -34 16 -35z m-554 6 c2 -3 -17 -4 -42 -2 -38 3 -42 5 -22 11 26 7 57 2
64 -9z m1332 -18 c5 -19 2 -30 -11 -39 -24 -18 -26 -15 -18 29 7 43 20 48 29
10z m71 5 c-3 -8 -6 -5 -6 6 -1 11 2 17 5 13 3 -3 4 -12 1 -19z m-1763 -30
c-3 -4 6 -10 20 -14 31 -7 66 -74 68 -130 1 -21 -2 -88 -6 -147 -7 -93 -6
-114 9 -147 10 -22 21 -37 26 -35 4 3 1 18 -7 33 -7 15 -14 38 -14 52 l1 25
13 -24 c13 -24 13 -24 18 12 2 19 0 33 -5 30 -5 -3 -6 5 -2 18 8 23 32 48 48
49 5 0 6 4 3 9 -6 10 39 33 74 37 14 1 62 10 108 19 46 9 89 14 97 11 23 -9
28 -64 9 -104 -27 -57 -124 -225 -143 -246 -21 -24 -108 -18 -128 10 -7 10
-13 14 -13 8 0 -5 -5 -1 -11 8 -9 15 -13 16 -51 2 -23 -8 -44 -12 -47 -8 -3 3
-6 42 -7 87 -1 73 -15 164 -31 207 -4 8 -8 29 -10 45 -2 22 0 26 7 15 13 -19
14 3 1 28 -28 55 -33 73 -27 97 4 17 3 24 -4 20 -6 -4 -10 8 -10 32 0 27 3 34
9 23 6 -8 8 -18 5 -22z m356 -28 c0 -5 -4 -10 -10 -10 -5 0 -10 5 -10 10 0 6
5 10 10 10 6 0 10 -4 10 -10z m78 -31 c-21 -14 -26 -10 -21 11 4 16 8 18 20 9
11 -10 11 -14 1 -20z m-149 -15 l21 -35 -26 3 c-35 4 -53 31 -35 52 8 9 15 16
16 16 2 0 12 -16 24 -36z m1421 -35 c3 -24 9 -49 13 -56 4 -6 4 -18 1 -27 -5
-13 -10 -13 -27 -4 -12 6 -35 14 -52 18 -21 4 -31 12 -33 28 -2 14 2 22 11 22
8 0 25 16 36 36 27 45 45 40 51 -17z m-32 -101 c16 -16 15 -43 -3 -58 -20 -16
-19 -40 1 -40 8 0 12 -5 9 -10 -5 -8 -11 -8 -20 0 -16 13 -40 -13 -31 -35 7
-18 -5 -20 -22 -3 -9 9 -12 9 -12 0 0 -6 9 -17 20 -24 11 -7 20 -16 20 -20 0
-15 -27 -8 -45 12 -29 32 -15 114 27 155 39 38 40 39 56 23z m57 -58 c3 -5 1
-10 -4 -10 -6 0 -11 5 -11 10 0 6 2 10 4 10 3 0 8 -4 11 -10z m-29 -78 c-18
-34 -49 -64 -44 -41 3 13 7 20 36 54 7 8 10 15 7 15 -3 0 -3 5 1 12 15 24 15
-10 0 -40z m-313 2 c12 -4 17 -17 17 -40 0 -19 -4 -34 -8 -34 -17 0 -21 13
-11 31 8 15 5 20 -16 25 -14 3 -25 13 -25 21 0 8 6 12 13 9 6 -3 20 -9 30 -12z
m20 -91 c-7 -2 -19 -2 -25 0 -7 3 -2 5 12 5 14 0 19 -2 13 -5z m-163 -29 c6
18 9 16 23 -14 19 -37 22 -66 8 -75 -6 -3 -13 -27 -17 -53 -4 -26 -11 -58 -17
-72 -6 -14 -11 -40 -13 -59 -2 -19 -14 -46 -27 -60 -13 -14 -34 -43 -47 -64
-31 -52 -93 -120 -141 -152 -42 -30 -131 -55 -195 -55 -40 0 -104 17 -114 30
-7 9 -46 30 -57 30 -4 0 -1 -5 7 -11 13 -9 13 -10 0 -6 -8 2 -14 12 -12 21 2
9 -3 15 -10 14 -8 -2 -12 4 -10 15 2 9 -3 17 -11 17 -7 0 -14 6 -14 14 0 11 4
11 26 0 14 -8 31 -14 38 -14 6 0 13 -3 16 -7 2 -5 2 -2 1 5 -2 6 1 12 6 12 6
0 19 9 30 20 11 11 16 20 10 20 -5 0 -10 9 -10 20 0 11 -7 20 -15 20 -19 0
-65 29 -65 41 0 5 25 7 55 5 30 -3 57 -1 60 4 3 4 28 11 55 15 36 5 66 19 108
49 31 23 71 50 87 60 44 28 95 84 95 103 0 21 29 53 47 53 8 0 11 5 8 11 -4 6
2 5 13 -2 26 -17 33 -41 25 -97 -8 -59 12 -49 30 16 10 33 11 54 4 69 -5 12
-6 38 -2 60 6 27 10 32 13 18 5 -20 5 -20 12 -1z m-210 -50 c0 -8 5 -12 10 -9
6 3 15 3 21 0 16 -11 -31 -55 -58 -55 -16 0 -23 -6 -23 -20 0 -16 -7 -20 -30
-20 -16 0 -30 -3 -30 -7 0 -12 -109 -59 -166 -72 -82 -19 -139 -12 -170 20
-33 34 -27 64 10 55 14 -3 28 -1 31 5 4 6 14 8 22 5 8 -3 21 1 29 9 9 8 25 15
38 15 12 0 31 7 42 15 10 8 38 15 62 15 23 0 42 4 42 10 0 5 13 7 30 4 18 -4
30 -2 30 4 0 16 41 26 50 12 6 -9 10 -6 15 9 7 24 45 29 45 5z m-382 -1 c-10
-2 -26 -2 -35 0 -10 3 -2 5 17 5 19 0 27 -2 18 -5z m-456 -69 c15 -22 37 -58
48 -81 12 -24 24 -43 28 -43 5 0 31 -29 60 -65 54 -68 66 -111 38 -134 -21
-17 -182 -24 -193 -8 -16 23 -36 92 -39 137 -1 25 -10 63 -19 85 -21 47 -48
136 -43 140 13 11 66 21 77 15 8 -4 27 -25 43 -46z m233 -135 c4 -11 24 -40
46 -65 41 -48 55 -89 22 -63 -82 63 -143 142 -143 186 0 19 67 -32 75 -58z
m515 46 c0 -8 -7 -15 -15 -15 -8 0 -15 -5 -15 -11 0 -6 -6 -9 -14 -6 -8 3 -16
1 -18 -4 -2 -5 -27 -12 -55 -14 -29 -2 -57 -6 -62 -9 -5 -4 -12 -2 -15 3 -6
10 -2 12 74 31 24 7 53 18 64 26 27 18 56 18 56 -1z m-1102 -412 c-11 -43 -49
-116 -62 -122 -4 -2 -3 -6 2 -10 12 -7 5 -51 -9 -51 -15 0 -22 73 -10 104 7
17 13 36 14 43 0 7 4 10 7 8 4 -3 18 11 31 30 31 45 40 44 27 -2z m1922 -27
c0 -3 -4 -8 -10 -11 -5 -3 -10 -1 -10 4 0 6 5 11 10 11 6 0 10 -2 10 -4z
m-1950 -209 c0 -10 -4 -15 -10 -12 -5 3 -10 -2 -10 -11 0 -27 -7 -13 -14 29
-7 36 -6 37 13 25 12 -7 21 -21 21 -31z m1660 -161 c0 -16 -24 -38 -33 -30 -7
7 14 44 25 44 5 0 8 -6 8 -14z m-34 -52 c-3 -7 0 -15 7 -18 7 -2 0 -5 -15 -5
-23 -1 -28 3 -28 22 0 13 3 27 7 30 10 10 35 -14 29 -29z m-54 -47 c1 -37 6
-67 10 -67 5 0 8 -5 8 -12 0 -6 7 -19 16 -29 14 -16 14 -21 -6 -58 -11 -23
-23 -41 -25 -41 -3 0 -23 12 -45 26 -53 35 -93 89 -85 114 7 22 30 27 39 8 3
-7 3 -2 0 12 -3 19 6 37 37 73 23 26 43 47 44 45 2 -2 5 -33 7 -71z m98 33 c0
-5 -2 -10 -4 -10 -3 0 -8 5 -11 10 -3 6 -1 10 4 10 6 0 11 -4 11 -10z m-73
-42 c-3 -8 -6 -5 -6 6 -1 11 2 17 5 13 3 -3 4 -12 1 -19z m63 9 c-1 -36 -14
-57 -36 -57 -26 0 -27 1 -18 24 5 13 9 14 20 5 12 -10 13 -9 8 5 -3 9 -10 16
-15 16 -21 0 -7 16 16 18 14 1 25 -3 25 -11z m-613 -40 c2 -12 5 -32 8 -44 3
-13 2 -23 -3 -23 -4 0 -13 -14 -19 -31 -7 -17 -17 -29 -24 -27 -17 6 -20 85
-3 99 8 6 14 19 14 29 0 37 22 35 27 -3z m-950 -29 c-3 -8 -6 -5 -6 6 -1 11 2
17 5 13 3 -3 4 -12 1 -19z m1538 -8 c3 -5 1 -10 -4 -10 -6 0 -11 5 -11 10 0 6
2 10 4 10 3 0 8 -4 11 -10z m-172 -115 c37 -35 67 -70 66 -77 0 -7 -31 -40
-68 -73 -63 -56 -77 -63 -210 -108 -79 -27 -145 -46 -148 -43 -3 3 21 37 53
76 56 67 95 116 132 169 30 41 97 121 102 121 3 0 36 -29 73 -65z m-1383 -160
c-7 -9 -15 -13 -17 -11 -7 7 7 26 19 26 6 0 6 -6 -2 -15z m167 -157 c-3 -8 -6
-5 -6 6 -1 11 2 17 5 13 3 -3 4 -12 1 -19z m-267 8 c0 -3 -4 -8 -10 -11 -5 -3
-10 -1 -10 4 0 6 5 11 10 11 6 0 10 -2 10 -4z m252 -68 c-7 -7 -12 -8 -12 -2
0 6 3 14 7 17 3 4 9 5 12 2 2 -3 -1 -11 -7 -17z m-16 -34 c-3 -9 -6 -18 -6
-20 0 -3 -4 -3 -10 1 -11 7 -2 35 12 35 6 0 7 -7 4 -16z m-16 -48 c0 -3 -4 -8
-10 -11 -5 -3 -10 -1 -10 4 0 6 5 11 10 11 6 0 10 -2 10 -4z m560 -191 c0 -12
-19 -12 -23 0 -4 9 -1 12 9 8 7 -3 14 -7 14 -8z"/>
<path d="M2110 5135 c0 -8 7 -15 15 -15 8 0 15 7 15 15 0 8 -7 15 -15 15 -8 0
-15 -7 -15 -15z"/>
<path d="M2270 4050 c-12 -8 -9 -10 13 -10 15 0 27 5 27 10 0 13 -20 13 -40 0z"/>
<path d="M1410 3671 c0 -5 5 -13 10 -16 6 -3 10 -2 10 4 0 5 -4 13 -10 16 -5
3 -10 2 -10 -4z"/>
<path d="M937 3203 c-4 -3 -7 -11 -7 -17 0 -6 5 -5 12 2 6 6 9 14 7 17 -3 3
-9 2 -12 -2z"/>
<path d="M900 3169 c0 -5 5 -7 10 -4 6 3 10 8 10 11 0 2 -4 4 -10 4 -5 0 -10
-5 -10 -11z"/>
<path d="M3914 3068 c14 -108 18 -433 7 -574 -7 -82 -14 -178 -17 -214 -8
-106 -34 -280 -54 -360 -22 -91 -37 -260 -22 -260 6 0 12 5 14 11 5 15 38 0
38 -18 0 -13 3 -13 15 -3 13 11 13 15 3 21 -10 7 -9 9 5 9 30 0 22 -55 -12
-79 -16 -12 -36 -21 -44 -21 -18 0 -27 -21 -28 -63 0 -18 -8 -62 -18 -100 -14
-56 -15 -69 -4 -78 15 -13 18 -49 4 -49 -6 0 -13 5 -16 10 -24 40 -41 -76 -17
-124 34 -69 45 -133 46 -263 1 -72 4 -134 7 -138 4 -3 17 20 30 52 20 49 24
74 23 155 -2 90 7 122 23 82 4 -11 8 -12 13 -4 4 7 17 9 33 4 22 -5 27 -12 27
-39 0 -20 -6 -35 -15 -39 -9 -3 -15 -17 -14 -33 0 -21 2 -23 7 -11 4 10 12 14
18 10 16 -10 28 -52 15 -52 -6 0 -10 -12 -9 -28 1 -15 -3 -36 -7 -47 -8 -17
-7 -18 7 -7 21 17 32 77 33 167 l0 70 38 -1 c43 -2 97 -44 97 -76 0 -11 4 -16
10 -13 5 3 21 -12 35 -35 22 -35 24 -45 16 -81 -5 -22 -22 -59 -38 -81 -30
-45 -104 -98 -137 -99 -12 0 -30 -5 -41 -10 -15 -7 -7 -8 27 -4 79 8 190 94
204 159 6 28 7 29 20 11 8 -10 14 -42 14 -69 0 -62 -26 -108 -76 -138 -19 -11
-33 -23 -30 -26 12 -12 87 51 107 90 19 36 21 52 15 117 l-6 76 26 -54 c23
-47 26 -63 20 -114 -8 -82 -34 -134 -100 -203 -50 -53 -58 -58 -76 -46 -11 6
-29 12 -39 12 -11 0 -24 7 -28 15 -10 16 -68 37 -77 27 -16 -15 -4 -32 22 -32
44 0 65 -20 53 -51 -7 -20 -5 -32 11 -57 20 -31 20 -32 51 -15 18 9 44 29 60
46 27 29 28 29 49 11 l22 -19 -18 28 c-19 31 -18 34 37 93 16 18 41 68 57 115
26 74 29 93 23 159 -5 69 -35 160 -55 168 -4 2 -8 10 -8 17 0 8 -8 20 -18 27
-10 7 -21 21 -25 30 -3 10 -27 49 -53 88 l-46 70 17 37 c15 32 16 43 6 78 -19
64 -18 69 16 80 38 13 75 44 67 57 -4 5 -15 8 -25 5 -10 -3 -41 2 -69 10 -44
13 -50 18 -50 41 0 15 4 42 10 61 15 52 21 207 11 313 -8 94 -9 99 -57 169
-27 39 -73 94 -103 121 l-54 50 21 44 c27 56 45 58 40 4 -2 -22 0 -36 4 -32 4
4 10 41 14 82 4 51 12 79 22 88 14 11 14 16 4 33 -8 12 -9 19 -4 15 7 -4 17
29 48 177 1 4 2 14 3 22 3 33 19 12 29 -37 l10 -53 -5 62 c-5 57 -3 65 18 83
23 20 23 21 3 15 -21 -5 -22 -2 -26 97 -4 106 -19 153 -69 217 -17 21 -102 81
-115 81 -4 0 -4 -19 0 -42z m81 -128 c3 -5 1 -10 -4 -10 -6 0 -11 5 -11 10 0
6 2 10 4 10 3 0 8 -4 11 -10z m61 -27 c9 -36 -2 -39 -20 -4 -20 37 -20 42 -1
35 8 -4 18 -17 21 -31z m-7 -103 c1 -32 -37 -135 -52 -138 -12 -3 -13 4 -1 49
8 29 12 73 10 97 -2 24 -1 54 2 65 5 18 8 16 23 -18 10 -22 18 -47 18 -55z
m-59 -209 c0 -16 3 -37 7 -47 3 -10 2 -15 -3 -12 -5 4 -10 -12 -12 -34 -1 -22
-10 -57 -20 -77 l-17 -36 -3 100 c-2 63 1 101 8 103 5 2 10 10 10 18 0 8 7 14
15 14 10 0 15 -10 15 -29z m157 -1286 c13 -28 14 -39 5 -60 -21 -46 -59 -20
-68 48 -7 46 -6 47 20 47 20 0 30 -8 43 -35z m-257 -164 c15 -29 12 -41 -9
-41 -20 0 -37 32 -26 50 10 16 23 12 35 -9z m67 -36 c3 -9 3 -18 1 -21 -9 -9
-38 8 -38 22 0 19 29 18 37 -1z m44 -8 c-13 -13 -26 -3 -16 12 3 6 11 8 17 5
6 -4 6 -10 -1 -17z m49 -23 c0 -8 -7 -14 -15 -14 -15 0 -21 21 -9 33 10 9 24
-2 24 -19z m53 -684 c-10 -11 -19 -20 -20 -20 -2 0 -3 9 -3 20 0 13 7 20 20
20 19 0 19 -1 3 -20z"/>
<path d="M974 3057 c-1 -30 -1 -30 9 -9 6 14 7 26 1 32 -5 5 -9 -4 -10 -23z"/>
<path d="M2546 2444 c-11 -8 -16 -14 -10 -14 13 0 39 18 34 24 -3 2 -14 -2
-24 -10z"/>
<path d="M2585 2430 c-3 -6 1 -7 9 -4 18 7 21 14 7 14 -6 0 -13 -4 -16 -10z"/>
<path d="M2796 2425 c-3 -9 -6 -24 -5 -33 0 -9 5 -4 10 12 9 32 6 48 -5 21z"/>
<path d="M931 2387 c-13 -21 -12 -21 5 -5 10 10 16 20 13 22 -3 3 -11 -5 -18
-17z"/>
<path d="M3920 755 c-18 -26 -30 -48 -28 -50 5 -5 71 85 65 91 -3 3 -19 -15
-37 -41z"/>
<path d="M3947 599 c7 -7 15 -10 18 -7 3 3 -2 9 -12 12 -14 6 -15 5 -6 -5z"/>
<path d="M4115 490 c4 -6 11 -8 16 -5 14 9 11 15 -7 15 -8 0 -12 -5 -9 -10z"/>
<path d="M4251 380 c0 -8 4 -24 9 -35 5 -13 9 -14 9 -5 0 8 -4 24 -9 35 -5 13
-9 14 -9 5z"/>
</g>
</svg>
